<svg viewBox="0 0 640 360" xmlns="http://www.w3.org/2000/svg" font-family="'Helvetica Neue', Arial, sans-serif">
  <defs>
    <linearGradient id="bg" x1="0" y1="0" x2="1" y2="1"><stop offset="0" stop-color="#0c0717"/><stop offset="1" stop-color="#180b29"/></linearGradient>
    <radialGradient id="gP" cx="0.5" cy="0.5" r="0.5"><stop offset="0" stop-color="#ff4d8d" stop-opacity="0.5"/><stop offset="1" stop-color="#ff4d8d" stop-opacity="0"/></radialGradient>
    <radialGradient id="gV" cx="0.5" cy="0.5" r="0.5"><stop offset="0" stop-color="#8b5cf6" stop-opacity="0.45"/><stop offset="1" stop-color="#8b5cf6" stop-opacity="0"/></radialGradient>
    <linearGradient id="ts" x1="0" y1="0" x2="0" y2="1"><stop offset="0" stop-color="#0c0717" stop-opacity="0.85"/><stop offset="1" stop-color="#0c0717" stop-opacity="0"/></linearGradient>
  </defs>
  <rect width="640" height="360" fill="url(#bg)"/>
  <ellipse cx="510" cy="300" rx="300" ry="190" fill="url(#gP)"/>
  <ellipse cx="120" cy="120" rx="260" ry="180" fill="url(#gV)"/>
  <g transform="translate(320,202)">
    <g stroke="#ff7ab0" stroke-width="4" stroke-linecap="round" opacity="0.5">
      <line x1="-104" y1="-7" x2="-104" y2="7"/><line x1="-84" y1="-18" x2="-84" y2="18"/><line x1="-64" y1="-30" x2="-64" y2="30"/>
      <line x1="104" y1="-7" x2="104" y2="7"/><line x1="84" y1="-18" x2="84" y2="18"/><line x1="64" y1="-30" x2="64" y2="30"/>
    </g>
    <rect x="-19" y="-62" width="38" height="74" rx="19" fill="rgba(255,77,141,0.22)" stroke="#ff4d8d" stroke-width="3"/>
    <path d="M-32,-4 a32,32 0 0 0 64,0" fill="none" stroke="#ff4d8d" stroke-width="3"/>
    <line x1="0" y1="28" x2="0" y2="50" stroke="#ff4d8d" stroke-width="3"/>
    <line x1="-17" y1="50" x2="17" y2="50" stroke="#ff4d8d" stroke-width="3" stroke-linecap="round"/>
  </g>
  <rect x="0" y="0" width="640" height="150" fill="url(#ts)"/>
  <text x="42" y="52" font-size="13.5" letter-spacing="3.5" font-weight="700" fill="#ff8ab5">WHAT WE DO</text>
  <text x="42" y="92" font-size="31" font-weight="700" fill="#ffffff">Your podcast, handled.</text>
  <rect x="0.75" y="0.75" width="638.5" height="358.5" fill="none" stroke="rgba(255,255,255,0.07)"/>
</svg>
