<svg viewBox="0 0 640 360" xmlns="http://www.w3.org/2000/svg" font-family="'Helvetica Neue', Arial, sans-serif">
  <defs>
    <linearGradient id="bg" x1="0" y1="0" x2="1" y2="1"><stop offset="0" stop-color="#0c0717"/><stop offset="1" stop-color="#180b29"/></linearGradient>
    <radialGradient id="gP" cx="0.5" cy="0.5" r="0.5"><stop offset="0" stop-color="#b06bff" stop-opacity="0.5"/><stop offset="1" stop-color="#b06bff" stop-opacity="0"/></radialGradient>
    <radialGradient id="gV" cx="0.5" cy="0.5" r="0.5"><stop offset="0" stop-color="#ff4d8d" stop-opacity="0.4"/><stop offset="1" stop-color="#ff4d8d" stop-opacity="0"/></radialGradient>
    <linearGradient id="ts" x1="0" y1="0" x2="0" y2="1"><stop offset="0" stop-color="#0c0717" stop-opacity="0.85"/><stop offset="1" stop-color="#0c0717" stop-opacity="0"/></linearGradient>
  </defs>
  <rect width="640" height="360" fill="url(#bg)"/>
  <ellipse cx="510" cy="300" rx="300" ry="190" fill="url(#gP)"/>
  <ellipse cx="120" cy="120" rx="260" ry="180" fill="url(#gV)"/>
  <g transform="translate(312,208)">
    <rect x="-78" y="-44" width="120" height="88" rx="14" fill="rgba(176,107,255,0.10)" stroke="#c89bff" stroke-opacity="0.7" stroke-width="3"/>
    <path d="M48,-24 L88,-46 L88,46 L48,24 Z" fill="rgba(176,107,255,0.22)" stroke="#c89bff" stroke-opacity="0.7" stroke-width="3" stroke-linejoin="round"/>
    <circle cx="-20" cy="0" r="21" fill="none" stroke="#c89bff" stroke-width="3"/>
    <circle cx="-20" cy="0" r="7" fill="#b06bff"/>
    <circle cx="22" cy="-26" r="4.5" fill="#ff4d8d"/>
  </g>
  <rect x="0" y="0" width="640" height="150" fill="url(#ts)"/>
  <text x="42" y="52" font-size="13.5" letter-spacing="3.5" font-weight="700" fill="#c89bff">SOUND FAMILIAR?</text>
  <text x="42" y="92" font-size="31" font-weight="700" fill="#ffffff">How do I make it look good?</text>
  <rect x="0.75" y="0.75" width="638.5" height="358.5" fill="none" stroke="rgba(255,255,255,0.07)"/>
</svg>
