<svg viewBox="0 0 640 360" xmlns="http://www.w3.org/2000/svg" font-family="'Helvetica Neue', Arial, sans-serif">
  <defs>
    <linearGradient id="bg" x1="0" y1="0" x2="1" y2="1"><stop offset="0" stop-color="#0c0717"/><stop offset="1" stop-color="#180b29"/></linearGradient>
    <radialGradient id="gP" cx="0.5" cy="0.5" r="0.5"><stop offset="0" stop-color="#ff7eb0" stop-opacity="0.5"/><stop offset="1" stop-color="#ff7eb0" stop-opacity="0"/></radialGradient>
    <radialGradient id="gV" cx="0.5" cy="0.5" r="0.5"><stop offset="0" stop-color="#8b5cf6" stop-opacity="0.45"/><stop offset="1" stop-color="#8b5cf6" stop-opacity="0"/></radialGradient>
    <linearGradient id="ts" x1="0" y1="0" x2="0" y2="1"><stop offset="0" stop-color="#0c0717" stop-opacity="0.85"/><stop offset="1" stop-color="#0c0717" stop-opacity="0"/></linearGradient>
  </defs>
  <rect width="640" height="360" fill="url(#bg)"/>
  <ellipse cx="510" cy="300" rx="300" ry="190" fill="url(#gP)"/>
  <ellipse cx="120" cy="120" rx="260" ry="180" fill="url(#gV)"/>
  <g transform="translate(320,212)" fill="none" stroke="#ff7eb0" stroke-width="6" stroke-linecap="round" stroke-linejoin="round">
    <path d="M-58 16 V42 a14 14 0 0 0 14 14 H44 a14 14 0 0 0 14 -14 V16"/>
    <path d="M0 34 V-46"/>
    <path d="M-30 -18 L0 -48 L30 -18"/>
  </g>
  <rect x="0" y="0" width="640" height="150" fill="url(#ts)"/>
  <text x="42" y="52" font-size="13.5" letter-spacing="3.5" font-weight="700" fill="#ffb3d4">SOUND FAMILIAR?</text>
  <text x="42" y="92" font-size="31" font-weight="700" fill="#ffffff">Where does it even go?</text>
  <rect x="0.75" y="0.75" width="638.5" height="358.5" fill="none" stroke="rgba(255,255,255,0.07)"/>
</svg>
